<svg id="color" enable-background="new 0 0 24 24" height="512" viewBox="0 0 24 24" width="512" xmlns="http://www.w3.org/2000/svg"><path d="m15.75 11c-.091 0-.184-.017-.272-.051-.288-.112-.478-.39-.478-.699v-2.25h-1.25c-.965 0-1.75-.785-1.75-1.75v-4.5c0-.965.785-1.75 1.75-1.75h8.5c.965 0 1.75.785 1.75 1.75v4.5c0 .965-.785 1.75-1.75 1.75h-3.42l-2.527 2.757c-.145.158-.347.243-.553.243z" fill="#ffc107"/><g fill="#fafafa"><circle cx="15.5" cy="4" r=".75"/><circle cx="18" cy="4" r=".75"/><circle cx="20.5" cy="4" r=".75"/></g><path d="m24 4h-2.75c0 .414-.336.75-.75.75s-.75-.336-.75-.75h-1c0 .414-.336.75-.75.75s-.75-.336-.75-.75h-1c0 .414-.336.75-.75.75s-.75-.336-.75-.75h-2.75v2.25c0 .965.785 1.75 1.75 1.75h1.25v2.25c0 .309.189.587.479.699.087.034.179.051.271.051.206 0 .408-.085.553-.243l2.527-2.757h3.42c.965 0 1.75-.785 1.75-1.75z" fill="#dea806"/><path d="m16.25 4h-1.5c0 .414.336.75.75.75s.75-.336.75-.75z" fill="#dadada"/><path d="m18.75 4h-1.5c0 .414.336.75.75.75s.75-.336.75-.75z" fill="#dadada"/><path d="m21.25 4h-1.5c0 .414.336.75.75.75s.75-.336.75-.75z" fill="#dadada"/><path d="m18.25 23.5c-.105 0-.21-.022-.308-.066l-5-2.25c-.27-.121-.442-.389-.442-.684v-5c0-.295.173-.563.442-.684l5-2.25c.231-.104.502-.084.715.054.214.138.343.376.343.63v9.5c0 .254-.129.492-.343.63-.123.079-.264.12-.407.12z" fill="#1e88e5"/><path d="m11.75 24h-9.5c-1.24 0-2.25-1.01-2.25-2.25v-7.5c0-1.24 1.01-2.25 2.25-2.25h9.5c1.24 0 2.25 1.01 2.25 2.25v7.5c0 1.24-1.01 2.25-2.25 2.25z" fill="#2196f3"/><path d="m19 18h-5v3.66l3.942 1.774c.098.045.203.066.308.066.143 0 .284-.041.407-.12.214-.138.343-.376.343-.63z" fill="#1a76c7"/><path d="m14 18h-14v3.75c0 1.24 1.01 2.25 2.25 2.25h9.5c1.24 0 2.25-1.01 2.25-2.25v-.09z" fill="#1d83d4"/></svg>