<?xml version="1.0" encoding="UTF-8" standalone="no"?>
<!-- Created with Inkscape (http://www.inkscape.org/) -->

<svg
   width="1920"
   height="720"
   viewBox="0 0 508 190.50005"
   version="1.1"
   id="svg5"
   sodipodi:docname="logo.svg"
   inkscape:export-filename="C:\Users\faiza\dev\Chatbridge.live\frontend\src\assets\logo.png"
   inkscape:export-xdpi="8"
   inkscape:export-ydpi="8"
   inkscape:version="1.1.1 (3bf5ae0d25, 2021-09-20)"
   xmlns:inkscape="http://www.inkscape.org/namespaces/inkscape"
   xmlns:sodipodi="http://sodipodi.sourceforge.net/DTD/sodipodi-0.dtd"
   xmlns="http://www.w3.org/2000/svg"
   xmlns:svg="http://www.w3.org/2000/svg">
  <sodipodi:namedview
     id="namedview7"
     pagecolor="#ffffff"
     bordercolor="#666666"
     borderopacity="1.0"
     inkscape:pageshadow="2"
     inkscape:pageopacity="0.0"
     inkscape:pagecheckerboard="true"
     inkscape:document-units="mm"
     showgrid="false"
     units="mm"
     height="1079px"
     inkscape:zoom="0.64052329"
     inkscape:cx="999.96364"
     inkscape:cy="460.56093"
     inkscape:window-width="2400"
     inkscape:window-height="1272"
     inkscape:window-x="4792"
     inkscape:window-y="-8"
     inkscape:window-maximized="1"
     inkscape:current-layer="g31912" />
  <defs
     id="defs2" />
  <g
     inkscape:label="Layer 1"
     inkscape:groupmode="layer"
     id="layer1">
    <g
       id="g24832"
       transform="translate(-6.3990095)">
      <g
         id="g31912"
         transform="translate(0,-57.750822)">
        <g
           id="g53"
           transform="matrix(3.8802754,0,0,3.8802754,40.285439,96.311695)">
          <path
             d="M 15.75,11 C 15.659,11 15.566,10.983 15.478,10.949 15.19,10.837 15,10.559 15,10.25 V 8 H 13.75 C 12.785,8 12,7.215 12,6.25 V 1.75 C 12,0.785 12.785,0 13.75,0 h 8.5 C 23.215,0 24,0.785 24,1.75 v 4.5 C 24,7.215 23.215,8 22.25,8 h -3.42 l -2.527,2.757 C 16.158,10.915 15.956,11 15.75,11 Z"
             fill="#ffc107"
             id="path9" />
          <g
             fill="#fafafa"
             id="g17">
            <circle
               cx="15.5"
               cy="4"
               r="0.75"
               id="circle11" />
            <circle
               cx="18"
               cy="4"
               r="0.75"
               id="circle13" />
            <circle
               cx="20.5"
               cy="4"
               r="0.75"
               id="circle15" />
          </g>
          <path
             d="m 24,4 h -2.75 c 0,0.414 -0.336,0.75 -0.75,0.75 -0.414,0 -0.75,-0.336 -0.75,-0.75 h -1 C 18.75,4.414 18.414,4.75 18,4.75 17.586,4.75 17.25,4.414 17.25,4 h -1 c 0,0.414 -0.336,0.75 -0.75,0.75 C 15.086,4.75 14.75,4.414 14.75,4 H 12 V 6.25 C 12,7.215 12.785,8 13.75,8 H 15 v 2.25 c 0,0.309 0.189,0.587 0.479,0.699 0.087,0.034 0.179,0.051 0.271,0.051 0.206,0 0.408,-0.085 0.553,-0.243 L 18.83,8 h 3.42 C 23.215,8 24,7.215 24,6.25 Z"
             fill="#dea806"
             id="path19" />
          <path
             d="m 16.25,4 h -1.5 c 0,0.414 0.336,0.75 0.75,0.75 0.414,0 0.75,-0.336 0.75,-0.75 z"
             fill="#dadada"
             id="path21" />
          <path
             d="m 18.75,4 h -1.5 c 0,0.414 0.336,0.75 0.75,0.75 0.414,0 0.75,-0.336 0.75,-0.75 z"
             fill="#dadada"
             id="path23" />
          <path
             d="m 21.25,4 h -1.5 c 0,0.414 0.336,0.75 0.75,0.75 0.414,0 0.75,-0.336 0.75,-0.75 z"
             fill="#dadada"
             id="path25" />
          <path
             d="m 18.25,23.5 c -0.105,0 -0.21,-0.022 -0.308,-0.066 l -5,-2.25 C 12.672,21.063 12.5,20.795 12.5,20.5 v -5 c 0,-0.295 0.173,-0.563 0.442,-0.684 l 5,-2.25 c 0.231,-0.104 0.502,-0.084 0.715,0.054 0.214,0.138 0.343,0.376 0.343,0.63 v 9.5 c 0,0.254 -0.129,0.492 -0.343,0.63 -0.123,0.079 -0.264,0.12 -0.407,0.12 z"
             fill="#1e88e5"
             id="path27" />
          <path
             d="M 11.75,24 H 2.25 C 1.01,24 0,22.99 0,21.75 v -7.5 C 0,13.01 1.01,12 2.25,12 h 9.5 c 1.24,0 2.25,1.01 2.25,2.25 v 7.5 C 14,22.99 12.99,24 11.75,24 Z"
             fill="#2196f3"
             id="path29" />
          <path
             d="m 19,18 h -5 v 3.66 l 3.942,1.774 c 0.098,0.045 0.203,0.066 0.308,0.066 0.143,0 0.284,-0.041 0.407,-0.12 C 18.871,23.242 19,23.004 19,22.75 Z"
             fill="#1a76c7"
             id="path31" />
          <path
             d="M 14,18 H 0 v 3.75 C 0,22.99 1.01,24 2.25,24 h 9.5 C 12.99,24 14,22.99 14,21.75 v -0.09 z"
             fill="#1d83d4"
             id="path33" />
        </g>
        <g
           aria-label="chatbridge"
           id="text2138"
           style="font-size:101.6px;line-height:1.25;stroke-width:0.264583">
          <path
             d="m 161.99761,148.93315 v 1.3208 c 0,0.508 0.1016,1.016 0.2032,1.524 0.508,1.7272 1.524,2.6416 3.1496,2.6416 0.3048,0 0.508,0 0.8128,-0.1016 2.1336,-0.6096 3.1496,-2.7432 3.1496,-6.4008 -0.1016,-4.7752 -2.3368,-7.5184 -6.8072,-8.0264 -2.4384,0.508 -4.6736,1.4224 -6.7056,2.7432 -6.604,4.1656 -9.8552,11.5824 -9.8552,22.1488 0,5.3848 1.2192,9.652 3.6576,12.8016 2.4384,3.048 5.4864,4.572 8.9408,4.572 3.6576,0 7.112,-1.016 10.668,-3.1496 5.9944,-3.6576 10.7696,-9.2456 14.224,-16.6624 l -4.4704,-3.2512 c -0.9144,2.032 -1.9304,3.9624 -3.048,5.6896 -4.7752,8.0264 -9.7536,11.9888 -14.9352,11.9888 -0.7112,-0.1016 -1.524,-0.3048 -2.2352,-0.7112 -2.54,-1.6256 -3.8608,-5.08 -3.8608,-10.3632 0.1016,-8.0264 2.4384,-13.6144 7.112,-16.764 z"
             style="font-family:'a Affirmation';-inkscape-font-specification:'a Affirmation';fill:#ffffff"
             id="path31848" />
          <path
             d="m 206.80304,176.26355 c 4.7752,0 9.3472,-4.6736 13.716,-13.9192 l -4.4704,-3.2512 c -3.048,6.604 -5.3848,9.8552 -7.0104,9.8552 -1.524,0 -2.54,-2.7432 -2.8448,-8.128 v -5.588 c 0,-7.0104 -1.8288,-10.5664 -5.3848,-10.5664 -2.3368,0 -4.3688,1.2192 -5.8928,3.8608 -1.524,2.4384 -3.1496,5.4864 -4.7752,9.144 -1.524,3.4544 -2.6416,5.8928 -3.1496,7.0104 0.7112,-6.1976 1.4224,-11.176 1.9304,-14.9352 8.636,-12.2936 13.0048,-22.6568 13.0048,-31.2928 v -0.2032 c 0,-5.7912 -2.032,-8.8392 -5.9944,-9.144 -1.2192,0.3048 -2.1336,0.6096 -2.8448,0.9144 -1.8288,1.016 -3.8608,3.7592 -6.096,8.2296 -5.7912,11.4808 -8.7376,26.1112 -8.8392,43.9928 0,11.8872 1.3208,17.8816 3.8608,17.8816 0.7112,0 2.1336,-0.508 4.1656,-1.6256 0.7112,-1.3208 2.1336,-4.3688 4.572,-9.4488 2.2352,-4.8768 4.4704,-8.8392 6.5024,-11.5824 0.1016,4.1656 0.7112,7.7216 1.6256,10.668 1.6256,5.3848 4.2672,8.128 7.9248,8.128 z m -16.6624,-33.2232 c 1.524,-7.7216 3.2512,-14.3256 5.3848,-19.7104 -0.6096,7.2136 -2.4384,13.716 -5.3848,19.7104 z"
             style="font-family:'a Affirmation';-inkscape-font-specification:'a Affirmation';fill:#ffffff"
             id="path31850" />
          <path
             d="m 243.78541,173.31715 c -1.4224,0 -2.2352,-2.032 -2.3368,-5.9944 l 1.016,-14.5288 c 0,-0.9144 -0.6096,-1.4224 -1.8288,-1.4224 -0.6096,-2.3368 -2.8448,-3.4544 -6.8072,-3.4544 -3.9624,0 -7.8232,1.3208 -11.5824,3.9624 -5.3848,3.8608 -8.128,8.636 -8.128,14.3256 0,5.6896 2.2352,8.5344 6.7056,8.5344 3.7592,0 7.5184,-1.8288 11.4808,-5.588 1.4224,5.8928 4.064,8.8392 8.0264,8.8392 2.4384,0 5.3848,-1.3208 8.8392,-4.064 3.556,-2.6416 6.5024,-6.5024 8.8392,-11.5824 l -4.4704,-3.2512 c -4.3688,9.4488 -7.62,14.224 -9.7536,14.224 z m -22.4536,-6.2992 c 0,-1.8288 0.4064,-3.4544 1.1176,-4.7752 1.7272,-3.1496 4.9784,-5.1816 9.7536,-5.9944 -0.3048,0.6096 -0.4064,1.9304 -0.4064,3.8608 0,2.032 0,3.7592 0.1016,5.2832 -3.556,2.8448 -6.2992,4.2672 -7.9248,4.2672 -1.8288,0 -2.6416,-0.9144 -2.6416,-2.6416 z"
             style="font-family:'a Affirmation';-inkscape-font-specification:'a Affirmation';fill:#ffffff"
             id="path31852" />
          <path
             d="m 254.55496,168.54195 c 1.7272,5.1816 4.7752,7.7216 9.144,7.8232 1.6256,-0.1016 3.3528,-0.508 5.08,-1.2192 4.7752,-2.2352 8.636,-6.5024 11.5824,-12.8016 l -4.4704,-3.2512 c -0.9144,1.9304 -1.9304,3.7592 -3.1496,5.4864 -3.2512,4.6736 -6.096,7.0104 -8.4328,7.0104 -2.2352,-0.1016 -3.3528,-2.6416 -3.4544,-7.8232 0.3048,-10.0584 0.9144,-18.5928 1.7272,-25.4 5.2832,-0.3048 9.5504,-1.6256 12.7,-3.7592 l 0.1016,-0.6096 c -1.7272,-1.2192 -5.6896,-1.9304 -11.7856,-2.1336 0.3048,-1.9304 0.6096,-3.7592 1.016,-5.4864 0.9144,-2.3368 1.524,-4.7752 2.032,-7.3152 -0.2032,-0.3048 -0.508,-0.9144 -0.9144,-1.8288 -0.4064,-0.9144 -0.9144,-1.4224 -1.4224,-1.4224 -1.8288,0.1016 -3.2512,0.4064 -4.2672,1.1176 -1.016,0.7112 -1.8288,2.54 -2.4384,5.588 -0.6096,2.9464 -1.2192,6.096 -1.7272,9.2456 l -16.0528,-0.7112 c -1.2192,0 -2.4384,0 -3.556,0.1016 l -1.6256,5.1816 c 1.2192,0.508 2.8448,0.9144 4.8768,1.2192 1.9304,0.4064 7.112,0.7112 15.3416,0.8128 -1.016,7.7216 -1.524,14.1224 -1.524,19.304 0,4.572 0.4064,8.2296 1.2192,10.8712 z"
             style="font-family:'a Affirmation';-inkscape-font-specification:'a Affirmation';fill:#ffffff"
             id="path31854" />
          <path
             d="m 292.9597,149.64435 c -1.7272,0 -2.9464,1.1176 -3.4544,3.2512 1.1176,5.588 3.8608,10.0584 8.4328,13.3096 0,1.016 -0.2032,2.1336 -0.508,3.2512 -1.3208,4.1656 -4.1656,6.8072 -8.5344,7.7216 -4.064,-0.8128 -6.096,-4.3688 -6.1976,-10.5664 0,-3.048 0.508,-6.604 1.4224,-10.5664 2.9464,-2.4384 6.2992,-5.8928 10.0584,-10.3632 8.636,-10.0584 13.0048,-17.5768 13.0048,-22.5552 0,-3.3528 -2.032,-5.08 -5.9944,-5.08 -7.2136,0 -13.5128,5.3848 -18.8976,16.0528 -4.572,9.0424 -6.8072,18.5928 -6.8072,28.7528 0,13.1064 3.8608,19.7104 11.4808,19.7104 2.54,0 4.9784,-0.7112 7.3152,-2.2352 3.8608,-2.54 6.4008,-6.604 7.5184,-12.192 1.7272,0.7112 3.4544,1.016 5.1816,1.016 4.572,-0.1016 7.9248,-2.3368 10.0584,-6.8072 l -4.4704,-3.2512 c -1.6256,3.3528 -3.6576,4.9784 -5.9944,4.9784 -1.3208,0 -2.7432,-0.6096 -4.2672,-1.7272 -0.508,-6.604 -2.8448,-10.7696 -7.2136,-12.2936 -0.8128,-0.3048 -1.524,-0.4064 -2.1336,-0.4064 z m 7.4168,-24.2824 c 0,0.508 -0.1016,1.3208 -0.3048,2.2352 -1.524,5.9944 -5.9944,12.5984 -13.4112,19.812 1.6256,-4.6736 3.6576,-9.3472 6.1976,-14.1224 3.1496,-5.9944 5.4864,-9.0424 6.8072,-9.0424 0.508,0 0.7112,0.4064 0.7112,1.1176 z"
             style="font-family:'a Affirmation';-inkscape-font-specification:'a Affirmation';fill:#ffffff"
             id="path31856" />
          <path
             d="m 322.72829,169.76115 c 0,9.652 2.7432,14.5288 8.2296,14.732 4.9784,-1.1176 10.668,-8.4328 17.0688,-22.1488 l -4.4704,-3.2512 c -1.1176,2.3368 -2.9464,5.6896 -5.4864,10.0584 l -5.2832,8.4328 c -0.7112,-0.1016 -1.016,-0.6096 -1.1176,-1.7272 0,-2.032 0.2032,-5.08 0.6096,-9.0424 0.4064,-4.3688 0.6096,-7.4168 0.6096,-9.144 0,-1.7272 -0.3048,-3.4544 -0.9144,-5.08 -1.6256,-4.1656 -5.9944,-7.112 -13.00479,-8.8392 -0.8128,-1.524 -2.1336,-2.6416 -3.9624,-3.1496 -0.7112,0.2032 -1.4224,0.6096 -2.2352,1.2192 -0.7112,0.6096 -1.3208,1.016 -1.6256,1.2192 v 1.2192 c 0.3048,2.032 1.524,3.7592 3.556,5.1816 0.1016,0.7112 0.1016,1.7272 0.1016,2.9464 0,1.4224 -0.7112,3.556 -2.2352,6.7056 l 2.54,3.6576 1.9304,-0.4064 c 1.6256,-3.4544 2.6416,-6.7056 2.9464,-9.8552 2.03199,1.4224 3.04799,3.4544 3.14959,6.096 z"
             style="font-family:'a Affirmation';-inkscape-font-specification:'a Affirmation';fill:#ffffff"
             id="path31858" />
          <path
             d="m 353.91933,125.97155 c 0,-4.1656 -1.6256,-6.5024 -4.7752,-7.0104 l -5.3848,4.8768 c 0.3048,0.7112 0.508,1.6256 0.8128,2.9464 0.8128,4.1656 2.032,6.604 3.7592,7.3152 h 0.9144 c 3.1496,-1.3208 4.6736,-3.9624 4.6736,-8.128 z m -8.3312,57.404 c 2.6416,0 6.096,-1.8288 10.2616,-5.3848 5.3848,-4.572 9.3472,-9.7536 12.0904,-15.6464 l -4.4704,-3.2512 c -4.7752,10.4648 -8.2296,15.6464 -10.2616,15.6464 -1.016,0 -1.524,-1.2192 -1.524,-3.7592 0,-1.1176 0.1016,-2.6416 0.3048,-4.572 l 0.9144,-7.112 c 0.1016,-1.4224 0.2032,-2.6416 0.2032,-3.7592 0,-5.9944 -2.1336,-8.9408 -6.2992,-8.9408 -1.1176,0 -2.2352,0.2032 -3.3528,0.7112 v 4.6736 l -1.8288,20.4216 v 2.4384 c 0,5.588 1.3208,8.4328 3.8608,8.5344 z"
             style="font-family:'a Affirmation';-inkscape-font-specification:'a Affirmation';fill:#ffffff"
             id="path31860" />
          <path
             d="m 399.33445,131.05155 c 0,7.9248 -3.1496,15.748 -9.3472,23.4696 1.524,-11.2776 4.6736,-19.812 9.2456,-25.8064 0.1016,0.7112 0.1016,1.524 0.1016,2.3368 z m -30.48,35.4584 c 0,-2.1336 0.7112,-4.064 2.1336,-5.7912 2.3368,-2.9464 5.9944,-4.572 10.9728,-4.7752 -0.4064,3.048 -0.6096,5.588 -0.6096,7.62 -4.8768,4.064 -8.3312,6.096 -10.3632,6.096 -1.4224,0 -2.1336,-1.016 -2.1336,-3.1496 z m 31.496,-46.9392 c -1.7272,0 -3.556,0.7112 -5.3848,2.1336 -5.2832,4.1656 -9.2456,13.4112 -11.9888,27.7368 -0.8128,-1.2192 -2.6416,-1.8288 -5.2832,-1.8288 -2.8448,0 -5.6896,1.2192 -8.8392,3.556 -4.8768,3.7592 -7.3152,8.636 -7.3152,14.6304 0,5.9944 2.2352,8.9408 6.8072,8.9408 4.1656,0 8.5344,-2.4384 13.1064,-7.3152 0.7112,7.0104 3.3528,10.4648 8.0264,10.4648 h 0.1016 c 2.54,0 5.7912,-1.4224 9.652,-4.1656 3.9624,-2.7432 7.0104,-6.604 9.2456,-11.3792 l -4.4704,-3.2512 c -0.8128,1.8288 -2.032,3.9624 -3.6576,6.5024 -3.7592,5.6896 -6.5024,8.5344 -8.4328,8.5344 -1.9304,0 -2.8448,-2.6416 -2.8448,-8.0264 0,-2.1336 0.1016,-4.4704 0.4064,-7.112 10.668,-11.8872 15.9512,-22.352 15.9512,-31.3944 0,-5.3848 -1.7272,-8.0264 -5.08,-8.0264 z"
             style="font-family:'a Affirmation';-inkscape-font-specification:'a Affirmation';fill:#ffffff"
             id="path31862" />
          <path
             d="m 411.93267,201.96835 c 0,4.572 1.8288,7.2136 5.4864,7.7216 2.1336,-0.1016 4.064,-0.9144 5.7912,-2.6416 3.9624,-5.588 6.1976,-14.4272 6.8072,-26.7208 0.6096,-0.508 1.6256,-1.3208 2.9464,-2.54 7.8232,-6.8072 12.4968,-11.9888 14.1224,-15.4432 l -4.4704,-3.2512 c -1.7272,3.556 -5.7912,8.5344 -12.3952,14.9352 0,-11.4808 0.3048,-19.9136 0.8128,-25.5016 -5.7912,-2.3368 -9.0424,-3.556 -9.7536,-3.556 -0.1016,0 -0.2032,0.1016 -0.2032,0.2032 l 0.6096,2.7432 c -4.3688,0.3048 -8.3312,1.7272 -11.8872,4.2672 -5.1816,3.7592 -7.7216,8.5344 -7.7216,14.3256 0,5.4864 2.2352,8.2296 6.8072,8.2296 3.9624,0 8.128,-2.1336 12.3952,-6.5024 l -0.3048,7.3152 c -0.1016,2.1336 -0.2032,3.8608 -0.2032,5.08 v 2.7432 c -5.8928,6.5024 -8.8392,12.7 -8.8392,18.5928 z m -2.6416,-35.56 c 0,-1.8288 0.6096,-3.556 1.8288,-5.1816 2.1336,-2.9464 5.6896,-4.6736 10.5664,-5.1816 -0.1016,4.3688 -0.2032,7.112 -0.3048,8.0264 -4.3688,3.7592 -7.5184,5.588 -9.652,5.588 -1.6256,0 -2.4384,-1.1176 -2.4384,-3.2512 z m 7.0104,33.7312 c 0,-3.2512 1.524,-6.8072 4.4704,-10.5664 -0.1016,7.2136 -1.3208,12.0904 -3.6576,14.8336 -0.2032,-0.2032 -0.508,-1.016 -0.8128,-2.4384 z"
             style="font-family:'a Affirmation';-inkscape-font-specification:'a Affirmation';fill:#ffffff"
             id="path31864" />
          <path
             d="m 452.47098,173.21555 c 0.2032,-0.2032 0.7112,-0.7112 1.524,-1.7272 0.9144,-0.8128 2.9464,-3.8608 6.2992,-8.9408 3.3528,-5.08 4.9784,-9.9568 4.9784,-14.732 0,-4.7752 -2.2352,-7.4168 -6.7056,-7.9248 -2.4384,0.508 -4.6736,1.4224 -6.7056,2.7432 -6.604,4.1656 -9.8552,11.5824 -9.8552,22.1488 0,5.3848 1.2192,9.652 3.6576,12.8016 2.4384,3.048 5.4864,4.572 9.3472,4.572 3.6576,0 7.62,-1.2192 11.5824,-3.7592 6.096,-3.8608 10.7696,-9.2456 13.9192,-16.0528 l -4.4704,-3.2512 c -1.4224,3.1496 -3.1496,5.9944 -5.1816,8.636 -4.6736,5.9944 -9.2456,9.0424 -13.8176,9.0424 -1.8288,-0.1016 -3.3528,-1.2192 -4.572,-3.556 z m 5.588,-24.2824 v 1.4224 c -0.7112,6.604 -3.048,12.4968 -7.0104,17.6784 -0.1016,-0.7112 -0.1016,-1.4224 -0.1016,-2.3368 0.1016,-8.0264 2.4384,-13.6144 7.112,-16.764 z"
             style="font-family:'a Affirmation';-inkscape-font-specification:'a Affirmation';fill:#ffffff"
             id="path31866" />
        </g>
      </g>
    </g>
  </g>
</svg>
