<?xml version="1.0" standalone="no"?>
<!DOCTYPE svg PUBLIC "-//W3C//DTD SVG 20010904//EN"
 "http://www.w3.org/TR/2001/REC-SVG-20010904/DTD/svg10.dtd">
<svg version="1.0" xmlns="http://www.w3.org/2000/svg"
 width="700.000000pt" height="700.000000pt" viewBox="0 0 700.000000 700.000000"
 preserveAspectRatio="xMidYMid meet">
<metadata>
Created by potrace 1.11, written by Peter Selinger 2001-2013
</metadata>
<g transform="translate(0.000000,700.000000) scale(0.100000,-0.100000)"
fill="#000000" stroke="none">
<path d="M3886 6985 c-186 -51 -337 -208 -375 -390 -6 -32 -10 -309 -11 -765
0 -777 -1 -773 56 -886 58 -116 180 -217 308 -256 63 -19 95 -22 289 -22 119
-1 217 -3 218 -6 0 -3 1 -162 2 -355 2 -339 3 -351 24 -391 40 -74 116 -124
191 -124 13 0 44 5 70 12 51 12 101 58 272 248 47 52 110 122 141 155 30 33
74 80 96 105 23 25 55 61 73 80 59 64 195 212 223 243 l28 32 542 1 c524 1
544 2 608 23 126 40 249 145 303 256 57 117 55 98 56 868 0 471 -3 732 -11
772 -25 137 -130 284 -250 350 -124 67 -44 64 -1494 63 -1063 0 -1319 -2
-1359 -13z"/>
<path d="M569 3496 c-2 -2 -20 -6 -39 -9 -179 -25 -372 -173 -459 -352 -74
-150 -70 -85 -71 -1385 0 -986 3 -1176 15 -1235 38 -183 176 -360 345 -444
155 -76 54 -72 1718 -69 l1487 3 75 29 c256 98 427 323 444 582 2 33 7 58 12
57 7 -1 530 -235 684 -306 411 -188 486 -218 541 -219 89 -1 158 42 202 127
20 40 20 43 19 1471 -1 1293 -2 1436 -17 1470 -34 82 -111 134 -199 135 -60 1
-53 4 -956 -404 -197 -89 -280 -125 -281 -124 -1 1 -3 16 -4 32 -16 145 -31
202 -78 292 -84 162 -237 283 -418 332 -72 19 -116 20 -1545 20 -809 1 -1473
-1 -1475 -3z"/>
</g>
</svg>
